<svg width="1141.32" height="562.32" xmlns="http://www.w3.org/2000/svg">
 <defs>
  <style>.cls-1{fill:#32323c;}.cls-2{fill:#c72026;}</style>
 </defs>
 <title>HIVE-Artwork</title>
 <g>
  <title>background</title>
  <rect fill="none" id="canvas_background" height="564.32" width="1143.32" y="-1" x="-1"/>
 </g>
 <g>
  <title>Layer 1</title>
  <path id="svg_1" d="m583.74804,409.167452a167.38,167.38 0 0 0 0.51,-19.17a154.82,154.82 0 0 0 -1.69,-18.53l-32.28,-5.35l-10.93,-30.52l21.51,-24.66a163.4,163.4 0 0 0 -23.06,-29.83l-29.27,14.69l-20.45,-13.9l0,-80.58l26.47,0l0,-34.72l-54.57,0l0,128.81a106.92,106.92 0 0 1 18.76,9.51l0,0l-0.44,-0.26a106.82,106.82 0 1 1 -114.63,0.26l0.15,0a107.23,107.23 0 0 1 16.5,-8.62l0,-129.7l-52.33,0l0,34.75l22.59,0l0,82.69l-0.47,0.35l-21.54,16.48l-30.05,-13a161.79,161.79 0 0 0 -21.35,31.06l22.87,23.39l-9.22,31.09l-31.94,7.19a164.42,164.42 0 0 0 -0.61,19.69a176.61,176.61 0 0 0 1.6,18l32.29,5.44l10.84,30.57l-21.65,24.6a165.11,165.11 0 0 0 23.05,30l29.34,-14.64l26.76,18.34l-3,32.64a163.34,163.34 0 0 0 36.18,10.67l15.06,-29.12l32.45,-0.9l16.72,28.2a163.77,163.77 0 0 0 35.55,-12.71l-4.87,-32.4l25.7,-19.84l30.08,12.89a162.23,162.23 0 0 0 21.37,-31.13l-23,-23.3l9.1,-31.19l31.9,-7.24z" class="cls-1"/>
  <path id="svg_2" d="m468.34804,406.017452c-18,-1.63 -34,-8.54 -50.44,-14.9a122,122 0 0 0 -67.32,-6.38a163.5,163.5 0 0 0 -20.55,5.06c0,0.53 0,1.07 0,1.6a93.15,93.15 0 0 0 185.64,11.13a143,143 0 0 1 -47.33,3.49z" class="cls-2"/>
  <circle id="svg_3" r="17.200001" cy="355.727452" cx="460.06804" class="cls-2"/>
  <circle id="svg_4" r="5.96" cy="333.117452" cx="404.29804" class="cls-2"/>
  <circle id="svg_5" r="8.93" cy="275.227452" cx="428.41804" class="cls-2"/>
  <circle id="svg_6" r="14.63" cy="154.717452" cx="416.62804" class="cls-2"/>
  <circle id="svg_7" r="23.369999" cy="107.977452" cx="479.81804" class="cls-2"/>
  <circle id="svg_8" r="33.34" cy="35.957452" cx="407.97804" class="cls-2"/>
  <path id="svg_9" d="m23.63804,155.647452l-18.89,0l0,-11.05l18.9,0l0,-31.88l12.27,0l0,31.88l21.05,0l0,11.1l-21.06,0l0,79.56l-12.27,0l0,-79.61z" class="cls-1"/>
  <path id="svg_10" d="m69.38804,112.717452l12.26,0l0,42.27a24.65,24.65 0 0 1 11.69,-9.39a41.52,41.52 0 0 1 15.83,-3a42.16,42.16 0 0 1 17.07,3.56a38.45,38.45 0 0 1 13.92,10.36a34.53,34.53 0 0 1 7.59,14.47a71.71,71.71 0 0 1 1.82,16.49l0,47.73l-12.23,0l0,-47.73a67.9,67.9 0 0 0 -0.91,-11.36a26.19,26.19 0 0 0 -14.58,-18.89a30.88,30.88 0 0 0 -13.18,-2.9a28.13,28.13 0 0 0 -12.43,3a26.8,26.8 0 0 0 -10,8.12a21.43,21.43 0 0 0 -4.06,10.53q-0.57,5.71 -0.58,11.52l0,47.73l-12.21,0l0,-122.51z" class="cls-1"/>
  <path id="svg_11" d="m179.27804,194.267452a26.74,26.74 0 0 0 3.23,12.19a36.09,36.09 0 0 0 7.79,9.94a37.07,37.07 0 0 0 10.77,6.71a32.2,32.2 0 0 0 12.35,2.49a38.66,38.66 0 0 0 9.95,-1.32a36.78,36.78 0 0 0 9.28,-3.9a35.31,35.31 0 0 0 7.79,-6.3a28.75,28.75 0 0 0 5.47,-8.37l12.76,0a43.74,43.74 0 0 1 -6.79,12.6a49.48,49.48 0 0 1 -23.21,16.66a43,43 0 0 1 -14.09,2.4a47.74,47.74 0 0 1 -18.64,-3.65a45.7,45.7 0 0 1 -15.09,-10.12a49,49 0 0 1 -10.1,-15.07a46.22,46.22 0 0 1 -3.73,-18.57a47.16,47.16 0 0 1 3.65,-18.56a46.63,46.63 0 0 1 10,-15a47.89,47.89 0 0 1 15,-10.11a46.14,46.14 0 0 1 18.58,-3.69a45.43,45.43 0 0 1 20.14,4.56a48.61,48.61 0 0 1 16.33,13a45.88,45.88 0 0 1 5.13,8a45.1,45.1 0 0 1 3.15,8.12a53,53 0 0 1 1.66,8.62q0.49,4.47 0.66,9.44l-82.04,-0.07zm151.82,-11.03a34.22,34.22 0 0 0 -4.39,-11.27a37.15,37.15 0 0 0 -7.88,-9.2a36.65,36.65 0 0 0 -92.4,-6.17a32.51,32.51 0 0 0 -12,-2.24a35.12,35.12 0 0 0 -12.27,2.15a37.28,37.28 0 0 0 -10.52,6a34.88,34.88 0 0 0 -8,9.12a33.64,33.64 0 0 0 -4.39,11.6l151.85,0.01z" class="cls-1"/>
  <polygon id="svg_12" points="801.8880735635757,313.8272399902344 798.6779905557632,313.8272399902344 798.6779905557632,462.6572570800781 801.8880735635757,462.6572570800781 820.808056473732,462.6572570800781 824.0180784463882,462.6572570800781 824.0180784463882,313.8272399902344 820.808056473732,313.8272399902344 801.8880735635757,313.8272399902344 " class="cls-1"/>
  <path id="svg_13" d="m757.55804,335.917452a62.8,62.8 0 0 0 -22.63,-16.83a68.33,68.33 0 0 0 -27.63,-5.77a67.64,67.64 0 0 0 -25.62,5a43.41,43.41 0 0 0 -13.6,8.61l0,-59.63l-25.33,0l0,195.36l25.35,0l0,-76.84a171.34,171.34 0 0 1 0.88,-17.45a29.89,29.89 0 0 1 5.64,-14.64a38.23,38.23 0 0 1 14.13,-11.55a42.06,42.06 0 0 1 36.74,-0.11a37.26,37.26 0 0 1 20.68,26.77a101.67,101.67 0 0 1 1.36,17l0,76.84l25.35,0l0,-76.86a114.27,114.27 0 0 0 -2.9,-26.18a56.71,56.71 0 0 0 -12.42,-23.72z" class="cls-1"/>
  <path id="svg_14" d="m1108.02804,412.677452a41.6,41.6 0 0 1 -7.83,12a52.08,52.08 0 0 1 -11.31,9.15a53,53 0 0 1 -13.5,5.66c-10.83,2.89 -21.9,2.63 -32.34,-1.65a54.57,54.57 0 0 1 -15.7,-9.78a52.87,52.87 0 0 1 -11.33,-14.46a38.48,38.48 0 0 1 -4.38,-14.06l126.44,0l-0.11,-3.32c-0.17,-5.15 -0.52,-10.14 -1,-14.82a87,87 0 0 0 -2.66,-13.8a74.12,74.12 0 0 0 -5.07,-13.1a75.09,75.09 0 0 0 -8.32,-12.88a78.43,78.43 0 0 0 -26.26,-20.91a73.59,73.59 0 0 0 -32.47,-7.36a74.9,74.9 0 0 0 -29.91,6a77.41,77.41 0 0 0 -24.17,16.25a77.34,77.34 0 0 0 -16,84a79,79 0 0 0 16.26,24.25a74.09,74.09 0 0 0 24.31,16.3a77.19,77.19 0 0 0 30,5.87a69.68,69.68 0 0 0 22.78,-3.88a79.5,79.5 0 0 0 37.29,-26.81a70.73,70.73 0 0 0 11,-20.35l1.45,-4.25l-26.29,0l-0.88,1.95zm-90.28,-49.73a51.15,51.15 0 0 1 11.54,-13.24a55,55 0 0 1 15.34,-8.69a50.41,50.41 0 0 1 35.16,0.11a53.7,53.7 0 0 1 26.55,22.33a49.62,49.62 0 0 1 5.46,12.5l-99.57,0a48.83,48.83 0 0 1 5.52,-13.01z" class="cls-1"/>
  <polygon id="svg_15" points="907.7380491495132,427.0672302246094 861.5579954385757,316.3872375488281 834.1280637979507,316.3872375488281 895.6280637979507,462.6572570800781 919.5780149698257,462.6572570800781 981.3479734659195,316.3872375488281 953.9181028604507,316.3872375488281 907.7380491495132,427.0672302246094 " class="cls-1"/>
 </g>
</svg>